<?xml version="1.0" standalone="no"?><!DOCTYPE svg PUBLIC "-//W3C//DTD SVG 1.1//EN" "http://www.w3.org/Graphics/SVG/1.1/DTD/svg11.dtd"><svg t="1594758342466" class="icon" viewBox="0 0 1024 1024" version="1.1" xmlns="http://www.w3.org/2000/svg" p-id="861" xmlns:xlink="http://www.w3.org/1999/xlink" width="200" height="200"><defs><style type="text/css"></style></defs><path d="M209.54713 208.990609c-114.248348 114.242783-112.985043 300.210087 2.170435 415.37113l3.088696 3.038609c87.846957 85.370435 216.737391 106.707478 323.968 59.581217l0.829217-0.372869 128.027826 128.038956c40.809739 40.809739 107.041391 41.254957 147.934609 0.361739l1.318957-1.341217c39.56313-40.987826 38.683826-106.223304-1.680696-146.587826l-128.027826-128.061218 0.384-0.834782c47.654957-108.493913 25.238261-239.137391-62.642087-327.017739-115.161043-115.161043-301.128348-116.424348-415.371131-2.176z m47.22087 47.220869c88.019478-88.019478 231.702261-87.045565 320.923826 2.170435 80.044522 80.044522 89.065739 203.91513 26.523826 292.10713l163.767652 163.812174c14.870261 14.870261 15.031652 38.817391 0.361739 53.48174-14.669913 14.675478-38.622609 14.514087-53.487304-0.356174l-163.778782-163.784348c-88.197565 62.553043-212.090435 53.542957-292.134957-26.507131-89.221565-89.221565-90.195478-232.904348-2.170435-320.923826z" fill="#222222" p-id="862"></path><path d="M417.947826 228.173913c104.537043 0 189.55687 83.539478 191.944348 187.497739a28.605217 28.605217 0 0 1 0.044522 2.415305l0.01113 2.086956h-0.13913a27.826087 27.826087 0 0 1-55.373913 0H554.295652C554.295652 344.870957 493.250783 283.826087 417.947826 283.826087a135.657739 135.657739 0 0 0-86.444522 30.903652l-2.120347 1.775304-0.050087-0.061217a27.826087 27.826087 0 0 1-33.90887-44.093217l-2.214957 1.858782A191.321043 191.321043 0 0 1 417.947826 228.173913z" fill="#F6B340" p-id="863"></path></svg>